# xmcd CD database file
#
# Track frame offsets:
#	150
#	20026
#	39077
#	55128
#	73129
#	90343
#	102194
#	123045
#	141796
#	153497
#	173448
#	188899
#
# Disc length: 2750 seconds
#
# Revision: 0
# Processed by: cddbd v1.5.1PL0 Copyright (c) Steve Scherf et al.
# Submitted via: CDex 1.51
#
DISCID=910abc0c
DTITLE=Blue Dance - Day and Night
DYEAR=2004
DGENRE=Jazz
TTITLE0=Besame mucho (Velasque)
TTITLE1=Stolen Moments (Nelson/Murphy)
TTITLE2=Vagabond (Bet.e and Stef)
TTITLE3=Stella by Starlight (Washington/Young)
TTITLE4=Englishman in New York (Sting)
TTITLE5=I Can't Give You Anything but Love (Fields/McHugh)
TTITLE6=Garota de Ipanema-Girl From Ipanema (Jobim/deMoraes-Gimbel)
TTITLE7=Vengo a ofrecer mi corazon (Fito Paez)
TTITLE8=So danco samba (Jobim/deMoraes)
TTITLE9=Les feuilles morte - Autumn Leaves (Kosma/Prevert-Mercer)
TTITLE10=How Insensitive (Jobim/de Moraes-Gimbel)
TTITLE11=Night and Day (Porter)
EXTD=YEAR: 2004
EXTT0=
EXTT1=
EXTT2=
EXTT3=
EXTT4=
EXTT5=
EXTT6=
EXTT7=
EXTT8=
EXTT9=
EXTT10=
EXTT11=
PLAYORDER=
